<svg xmlns="http://www.w3.org/2000/svg" xml:space="preserve" width="500.01538" height="500" viewBox="0 0 500.01539 499.99998"><path d="M1.325 65.016c0 35.126 28.574 63.699 63.698 63.699 35.123 0 63.698-28.573 63.698-63.699 0-35.123-28.575-63.691-63.698-63.691-35.124 0-63.698 28.568-63.698 63.691z" style="fill:#fff;fill-opacity:1;fill-rule:nonzero;stroke:none;stroke-width:.1" transform="matrix(3.84497 0 0 -3.84497 0 500)"/><path d="M65.023 106.77c-23.024 0-41.753-18.733-41.753-41.754 0-23.02 18.729-41.752 41.753-41.752 23.023 0 41.751 18.732 41.751 41.752 0 23.021-18.728 41.754-41.751 41.754M13.898 75.546a2.504 2.504 0 1 0-5.006.001 2.504 2.504 0 0 0 5.006 0M119.465 75.575a2.504 2.504 0 1 0-5.008 0 2.504 2.504 0 0 0 5.008 0M11.753 57.95c-.063-.002-.11.037-.144.115a.903.903 0 0 1-.141.23 1.11 1.11 0 0 1-.232.213c-.088.067-.23.092-.429.084l-1.514-.08a.313.313 0 0 0-.186.04.52.52 0 0 0-.109.1c-.164.307-.342.749-.528 1.325-.187.576-.298 1.242-.335 2-.03.592.05 1.166.241 1.718.192.555.494 1.04.911 1.465.294.296.646.545 1.056.74.41.2.919.317 1.526.346.649.033 1.22-.06 1.723-.285.499-.22.927-.521 1.28-.91.333-.36.596-.77.786-1.232.193-.46.3-.953.326-1.471.043-.86.006-1.502-.107-1.93-.117-.425-.219-.8-.303-1.125a.182.182 0 0 0-.056-.111.18.18 0 0 0-.13-.055l-1.671-.422a.355.355 0 0 0-.173.028.275.275 0 0 0-.112.101c-.017.047-.009.094.024.141a.44.44 0 0 0 .136.123c.185.129.383.28.594.463.208.18.356.314.44.4.13.164.295.405.497.723.202.32.29.785.26 1.396-.044.841-.415 1.452-1.114 1.829-.7.38-1.468.546-2.307.505a5.157 5.157 0 0 1-1.176-.199 3.479 3.479 0 0 1-.998-.453 2.547 2.547 0 0 1-.703-.789c-.187-.322-.282-.72-.296-1.2a2.707 2.707 0 0 1 .204-1.099c.145-.342.269-.511.37-.506l1.351.07c.197.01.339.067.427.175.088.107.156.216.205.33.03.074.062.154.1.233.038.081.088.122.158.126.06.004.105-.016.13-.06a.428.428 0 0 0 .047-.208l.131-2.597c.006-.112-.005-.184-.03-.225-.026-.037-.068-.06-.13-.062M15.023 52.256c-.023-.006-.044 0-.068.01a.398.398 0 0 0-.084.094c-.02.025-.039.055-.06.088-.02.037-.042.07-.063.105a1.176 1.176 0 0 1-.26.293 1.614 1.614 0 0 1-.247.16c-.112.065-.238.131-.382.198l-2.18.89-1.083-.207c-.082-.014-.16-.039-.245-.064a.616.616 0 0 1-.21-.121.577.577 0 0 1-.114-.19 1.45 1.45 0 0 1-.048-.224.493.493 0 0 0-.04-.157.125.125 0 0 0-.091-.072c-.034-.006-.064.004-.094.033a.192.192 0 0 0-.059.111L9.297 55.3a.208.208 0 0 0 .012.125c.016.037.044.06.076.065a.126.126 0 0 0 .11-.032.476.476 0 0 0 .095-.132 1.17 1.17 0 0 1 .129-.184.615.615 0 0 1 .174-.133.504.504 0 0 1 .242-.043c.087.004.17.014.249.03l1.079.203 1.856 1.785c.098.098.172.187.22.277.045.084.083.162.11.223a2.122 2.122 0 0 1 .13.465c.01.048.027.087.052.117a.122.122 0 0 0 .07.05.093.093 0 0 0 .094-.035.21.21 0 0 0 .049-.097l.453-2.383a.29.29 0 0 0-.003-.115c-.013-.037-.035-.059-.071-.067-.039-.006-.07 0-.094.026a.384.384 0 0 0-.07.09c-.041.076-.086.15-.129.224-.043.074-.1.117-.17.127a.292.292 0 0 1-.194-.033.758.758 0 0 1-.175-.139l-1.394-1.34 1.755-.707a.732.732 0 0 1 .201-.04.272.272 0 0 1 .203.064.367.367 0 0 1 .134.197c.014.063.03.125.047.188.016.052.03.091.041.115.014.023.033.039.067.045.036.008.062 0 .086-.02.023-.02.038-.05.046-.094l.325-1.697a.217.217 0 0 0-.006-.111c-.01-.033-.036-.05-.073-.057" style="fill:#354fa9;fill-opacity:1;fill-rule:nonzero;stroke:none;stroke-width:.1" transform="matrix(3.84497 0 0 -3.84497 0 500)"/><path d="M11.729 46.186a.16.16 0 0 0-.092.023.119.119 0 0 0-.05.06l-1.349 4.411a.199.199 0 0 0-.002.127c.014.037.035.064.069.074.04.01.079.002.113-.021a.49.49 0 0 0 .11-.123c.05-.069.1-.127.146-.17a.486.486 0 0 1 .188-.112.537.537 0 0 1 .244-.017c.087.014.17.031.247.056l3.003.922c.079.022.158.053.238.09.08.04.146.088.19.15a.49.49 0 0 1 .094.194c.013.066.022.14.025.227a.597.597 0 0 0 .027.162.108.108 0 0 0 .08.08.098.098 0 0 0 .1-.02.207.207 0 0 0 .066-.107l1.315-4.301a.11.11 0 0 0-.003-.076.122.122 0 0 0-.061-.07l-1.059-.565a.279.279 0 0 0-.113-.037c-.033 0-.062.016-.09.041a.12.12 0 0 0-.039.1c.004.037.02.074.05.107a5.8 5.8 0 0 1 .28.332c.086.115.153.238.207.379.06.152.089.342.095.562.003.221-.026.43-.086.633-.041.137-.104.322-.188.553-.084.232-.194.402-.332.504a.283.283 0 0 1-.14.055.783.783 0 0 1-.252-.05l-1.296-.394c.042-.133.107-.346.196-.638.095-.311.225-.5.393-.569a1.997 1.997 0 0 1 .66-.16c.035.002.08 0 .13-.002a.461.461 0 0 0 .124-.023.13.13 0 0 0 .076-.092.096.096 0 0 0-.019-.096.219.219 0 0 0-.103-.06l-2.161-.66a.208.208 0 0 0-.117-.008c-.037.01-.059.033-.075.068-.017.043-.016.084.01.115a.372.372 0 0 0 .092.088c.045.033.084.06.114.08a2.14 2.14 0 0 1 .447.496c.1.15.1.381.005.692l-.196.638-1.372-.422c-.27-.082-.39-.271-.358-.572.034-.299.09-.592.176-.869.063-.201.162-.4.296-.6.137-.197.27-.345.399-.439.147-.111.3-.19.458-.238.156-.045.311-.086.46-.12a.224.224 0 0 0 .117-.06.112.112 0 0 0 .032-.104.163.163 0 0 0-.055-.09.243.243 0 0 0-.116-.038l-1.349-.096M16.22 41.785c.615.268 1.066.63 1.359 1.08.294.452.342.905.144 1.352-.192.443-.553.711-1.083.809-.533.097-1.104.013-1.725-.258-.624-.272-1.082-.635-1.367-1.084-.288-.447-.334-.899-.136-1.35.197-.447.554-.718 1.078-.818.522-.096 1.1-.008 1.73.27zm.507-1.162c-.717-.316-1.43-.326-2.137-.033-.707.295-1.225.819-1.558 1.58-.328.748-.362 1.483-.1 2.203.261.725.753 1.243 1.475 1.557.729.32 1.445.328 2.148.03.708-.301 1.223-.827 1.55-1.575.329-.756.363-1.49.097-2.209-.265-.723-.754-1.24-1.475-1.553M22.056 36.332a.121.121 0 0 0-.116 0 .77.77 0 0 0-.134.088.977.977 0 0 1-.183.135.508.508 0 0 1-.206.06.431.431 0 0 1-.239-.037c-.081-.037-.159-.072-.23-.11l-3.605-2.106c-.065-.04-.11-.04-.134-.004-.023.037-.024.092-.001.166l1.422 5.299-2.445-1.428a1.454 1.454 0 0 1-.21-.145.488.488 0 0 1-.197-.406c0-.064.01-.135.025-.22.015-.063.02-.116.015-.16a.121.121 0 0 0-.061-.1c-.03-.018-.064-.018-.1 0a.198.198 0 0 0-.092.09l-.755 1.285a.2.2 0 0 0-.029.123c.002.04.019.072.05.086.035.023.075.023.116.005a.454.454 0 0 0 .131-.091c.069-.055.127-.104.184-.133a.444.444 0 0 1 .206-.063.445.445 0 0 1 .244.041c.08.03.155.069.224.11L18.65 40.4c.069.04.14.09.21.144.072.055.12.117.15.19.034.076.05.146.048.21-.002.067-.012.141-.028.225a.678.678 0 0 0-.01.166.12.12 0 0 0 .057.096.114.114 0 0 0 .104.002.243.243 0 0 0 .089-.088l.592-1.01a.287.287 0 0 0 .034-.084.18.18 0 0 0-.007-.064l-1.044-4.24c-.013-.055-.01-.086.01-.094.019-.016.044-.012.073.008l1.771 1.033c.07.043.14.09.211.146a.46.46 0 0 1 .15.192.475.475 0 0 1 .047.209c-.001.066-.012.139-.028.226a.85.85 0 0 0-.013.164.114.114 0 0 0 .057.1c.032.02.068.02.105 0a.229.229 0 0 0 .09-.094l.756-1.293a.204.204 0 0 0 .033-.12.112.112 0 0 0-.05-.093M23.313 29.954c-.035-.024-.077-.024-.13.01a.744.744 0 0 1-.17.081.998.998 0 0 1-.22.032c-.074.005-.167-.037-.28-.121l-.848-.637a.216.216 0 0 0-.123-.05.296.296 0 0 0-.103.017c-.218.113-.49.298-.824.56a5.562 5.562 0 0 0-.977 1.027c-.25.334-.426.698-.533 1.094-.105.399-.119.801-.045 1.21.055.284.163.566.323.843.16.273.412.54.754.795.362.273.731.441 1.108.51.378.068.743.056 1.102-.028.333-.08.646-.215.937-.408.291-.191.546-.436.764-.723.36-.484.59-.87.692-1.164l.265-.773a.126.126 0 0 0 .01-.088.125.125 0 0 0-.052-.078l-.808-.903a.207.207 0 0 0-.107-.048.184.184 0 0 0-.107.011.104.104 0 0 0-.04.092c0 .04.008.08.031.125.057.149.112.315.162.5.051.19.086.322.102.406.01.147.01.35.005.614-.008.267-.14.568-.398.91-.353.47-.808.68-1.362.629a3.012 3.012 0 0 1-1.536-.611 3.504 3.504 0 0 1-.603-.575 2.415 2.415 0 0 1-.403-.652 1.79 1.79 0 0 1-.1-.736c.019-.258.118-.53.3-.81.148-.231.329-.417.546-.56.218-.14.355-.189.412-.146l.76.566c.11.084.17.174.178.268a.95.95 0 0 1-.011.272 4.856 4.856 0 0 0-.033.177c-.01.063.006.106.042.135.035.025.068.03.1.018a.324.324 0 0 0 .107-.106l1.095-1.457c.046-.062.068-.107.068-.14.002-.032-.015-.063-.05-.088M26.375 25.375c-.21-.162-.426-.253-.64-.263-.215-.012-.4 0-.554.031-.26.06-.503.16-.734.303-.23.146-.498.379-.802.705a5.738 5.738 0 0 0-.692.92c-.22.349-.385.685-.494.996a.297.297 0 0 0-.01.078.102.102 0 0 0 .037.084l.809.994c.037.035.072.057.104.057a.27.27 0 0 0 .105-.008.126.126 0 0 0 .057-.088.228.228 0 0 0-.013-.13 7.655 7.655 0 0 1-.13-.511 2.126 2.126 0 0 1-.057-.537c.008-.312.063-.6.162-.873.098-.273.228-.5.39-.683.335-.36.632-.58.898-.657.264-.076.484-.064.66.032.243.13.351.3.335.513-.019.209-.092.42-.22.63-.184.304-.34.568-.469.786-.128.215-.26.463-.396.74-.074.161-.138.311-.186.458a2.033 2.033 0 0 0-.09.365c-.024.24-.011.465.04.66.05.203.17.392.359.57.383.358.823.465 1.314.322.492-.146.92-.408 1.283-.798.235-.25.466-.55.693-.893.223-.35.39-.656.496-.931a.155.155 0 0 0-.011-.176l-.82-1.006a.304.304 0 0 0-.1-.065.19.19 0 0 0-.11.004c-.03.018-.048.055-.06.098a.275.275 0 0 0 .01.141c.066.13.12.291.161.486.041.195.064.367.073.508.004.166-.04.4-.13.71a2.314 2.314 0 0 1-.465.839c-.16.183-.39.35-.694.49-.303.14-.561.105-.77-.112-.172-.175-.222-.363-.15-.562.07-.203.164-.408.284-.611l.703-1.198c.274-.484.416-.929.422-1.334.007-.406-.191-.767-.598-1.084M30.262 25.17l-1.866-.777 1.363-1.176Zm.192-4.99c-.026-.025-.054-.039-.088-.031a.196.196 0 0 0-.09.045l-1.669 1.439a.254.254 0 0 0-.062.086c-.016.039-.01.067.01.094.025.027.05.043.077.037a.805.805 0 0 0 .105-.021.718.718 0 0 1 .193-.049.577.577 0 0 1 .218.006.425.425 0 0 1 .192.089.37.37 0 0 1 .127.2l.168.652c-1.133.979-1.703 1.475-1.705 1.475l-.619-.266a.726.726 0 0 1-.217-.125.245.245 0 0 1-.098-.162.467.467 0 0 1 .004-.188c.015-.048.032-.105.052-.16a.691.691 0 0 0 .041-.119c0-.021-.011-.045-.036-.074a.096.096 0 0 0-.076-.037c-.03.002-.058.017-.087.045l-1.058.912a.207.207 0 0 0-.062.082c-.013.031-.008.058.018.088.015.02.038.029.063.033a.469.469 0 0 0 .11-.02c.038-.009.075-.015.116-.03.04-.013.086-.022.137-.03a.838.838 0 0 1 .305.004c.073.019.17.054.292.107l4.544 1.893a.968.968 0 0 0 .155.05c.037.004.066 0 .092-.017.026-.02.039-.05.04-.092 0-.039-.006-.09-.021-.16l-1.231-4.869a.946.946 0 0 1-.033-.215 1.145 1.145 0 0 1 .028-.312.953.953 0 0 1 .061-.163c.027-.05.04-.091.034-.125l-.007-.043-.023-.029M38.523 20.643a.119.119 0 0 0-.103-.05.786.786 0 0 0-.16.021.972.972 0 0 1-.223.043.476.476 0 0 1-.213-.034.425.425 0 0 1-.201-.138 5.609 5.609 0 0 1-.157-.195l-2.353-3.454c-.043-.06-.082-.082-.12-.058-.037.02-.06.074-.072.15l-.99 5.397-1.597-2.342a1.407 1.407 0 0 1-.125-.219.485.485 0 0 1-.006-.45c.028-.058.067-.118.12-.192a.496.496 0 0 0 .083-.137.126.126 0 0 0-.015-.117c-.02-.028-.05-.041-.09-.041a.227.227 0 0 0-.121.037l-1.232.842a.198.198 0 0 0-.08.097.106.106 0 0 0 .005.1.126.126 0 0 0 .103.054.468.468 0 0 0 .16-.027 2.17 2.17 0 0 1 .223-.043.508.508 0 0 1 .213.035.5.5 0 0 1 .205.139c.057.064.109.127.155.197l1.77 2.596c.045.066.088.14.127.219a.516.516 0 0 1 .007.447c-.03.059-.072.123-.121.193a.902.902 0 0 0-.083.14.118.118 0 0 0 .013.116c.021.031.053.045.092.045.04 0 .078-.016.12-.045l.962-.654a.244.244 0 0 0 .07-.061.118.118 0 0 0 .022-.062l.877-4.277c.012-.055.028-.083.049-.083.022 0 .044.012.062.04l1.156 1.695c.047.066.089.14.129.22a.457.457 0 0 1 .053.24.464.464 0 0 1-.047.206 1.571 1.571 0 0 1-.122.193.986.986 0 0 0-.084.143.115.115 0 0 0 .01.117.108.108 0 0 0 .093.045.28.28 0 0 0 .123-.045l1.238-.844a.225.225 0 0 0 .083-.097.105.105 0 0 0-.008-.102M42.394 15.415c-.019-.038-.061-.053-.12-.045a.738.738 0 0 1-.189-.002 1.146 1.146 0 0 1-.211-.063c-.07-.031-.137-.107-.202-.232l-.494-.938a.238.238 0 0 0-.088-.101.323.323 0 0 0-.1-.026c-.245.008-.572.06-.986.151a5.574 5.574 0 0 0-1.323.51c-.37.197-.686.447-.95.763-.265.309-.45.67-.558 1.07-.073.284-.098.58-.07.9.026.317.14.667.337 1.04.213.406.474.715.785.939a2.794 2.794 0 0 0 2.028.481c.349-.053.682-.16 1.002-.332.533-.282.908-.53 1.124-.752l.57-.584a.145.145 0 0 0 .048-.074.15.15 0 0 0-.013-.098l-.343-1.154a.196.196 0 0 0-.078-.092.151.151 0 0 0-.102-.033c-.034.004-.06.027-.075.06a.337.337 0 0 0-.027.131 5.534 5.534 0 0 1-.065.523c-.036.186-.064.325-.084.405-.055.136-.14.322-.258.56-.12.233-.37.451-.752.653-.52.273-1.018.267-1.497-.02a2.986 2.986 0 0 1-1.124-1.209 3.51 3.51 0 0 1-.302-.779 2.31 2.31 0 0 1-.082-.764c.023-.242.098-.48.224-.705.127-.226.333-.428.618-.603a1.91 1.91 0 0 1 .732-.272c.26-.035.405-.017.436.047l.443.834c.065.125.08.232.045.32a.947.947 0 0 1-.125.24c-.035.047-.07.094-.105.145-.035.055-.043.098-.019.143.019.037.048.056.083.056a.338.338 0 0 0 .143-.047l1.611-.849c.067-.035.108-.069.122-.096.016-.029.012-.062-.01-.101M54.887 16.23a.154.154 0 0 0-.114-.112 1.111 1.111 0 0 0-.232-.041c-.13 0-.236-.016-.32-.034a.892.892 0 0 1-.277-.138.636.636 0 0 1-.21-.274c-.05-.119-.096-.228-.137-.34l-1.712-5.71c-.033-.106-.078-.149-.138-.135-.058.015-.114.072-.162.17l-3.675 6.925-1.164-3.875a2.577 2.577 0 0 1-.078-.351.773.773 0 0 1 .027-.354.727.727 0 0 1 .161-.261c.062-.073.143-.14.244-.21a.839.839 0 0 0 .172-.154c.04-.05.05-.107.03-.164-.012-.047-.047-.078-.104-.099a.27.27 0 0 0-.18.006l-2.041.609a.311.311 0 0 0-.155.1c-.035.044-.045.09-.032.136a.175.175 0 0 0 .117.12.66.66 0 0 0 .23.035c.122.005.23.017.32.039a.675.675 0 0 1 .279.134c.09.073.162.164.214.278.054.111.096.226.13.336l1.29 4.299c.034.111.059.228.08.353a.704.704 0 0 1-.03.348.663.663 0 0 1-.155.263 1.66 1.66 0 0 1-.25.209 1.182 1.182 0 0 0-.17.16c-.038.047-.05.1-.034.157.018.054.052.09.107.103a.294.294 0 0 0 .18-.006l1.6-.48c.057-.02.097-.033.12-.05a.295.295 0 0 0 .056-.077l3.036-5.449c.037-.069.07-.096.1-.09.032.01.055.035.071.082l.84 2.809c.034.107.06.228.079.355a.64.64 0 0 1-.027.344.67.67 0 0 1-.155.267 1.762 1.762 0 0 1-.249.207 1.455 1.455 0 0 0-.177.16.16.16 0 0 0-.035.163c.014.054.05.084.109.101.058.01.12.01.186-.012l2.048-.613a.31.31 0 0 0 .155-.096.14.14 0 0 0 .032-.142M56.76 12.758l-1.162-1.65 1.779-.268zm2.825-4.115c-.008-.037-.025-.064-.057-.074a.194.194 0 0 0-.103-.01l-2.175.328a.207.207 0 0 0-.098.041c-.035.022-.05.047-.045.082.007.035.022.061.045.074.025.01.058.022.103.034a.734.734 0 0 1 .368.183c.053.043.09.108.117.182a.368.368 0 0 1 0 .232l-.204.645c-1.483.222-2.23.334-2.234.336l-.378-.551a.892.892 0 0 1-.12-.225.247.247 0 0 1 .006-.19.467.467 0 0 1 .102-.155l.13-.11c.056-.037.087-.066.102-.08.01-.017.012-.045.008-.082a.1.1 0 0 0-.047-.07.155.155 0 0 0-.096-.008l-1.382.207a.256.256 0 0 0-.098.037c-.025.016-.037.047-.029.086.002.02.016.041.038.06.02.016.055.03.098.038a.923.923 0 0 0 .117.041.46.46 0 0 1 .13.049c.119.052.205.109.256.164.054.054.117.134.192.246l2.83 4.027c.043.055.08.096.107.119.029.028.056.039.084.039a.12.12 0 0 0 .083-.054.797.797 0 0 0 .07-.149L59.06 9.36a.976.976 0 0 1 .086-.195c.034-.055.06-.098.091-.135.032-.043.066-.082.102-.12a.627.627 0 0 1 .14-.103c.048-.029.081-.059.092-.086.014-.029.018-.045.018-.045l-.004-.033M64.828 11.94a.23.23 0 0 0-.008-.115.121.121 0 0 0-.066-.073.121.121 0 0 0-.11-.005.2.2 0 0 0-.087.085c-.067.133-.144.295-.235.485a1.935 1.935 0 0 1-.258.433 1.812 1.812 0 0 1-.303.282.852.852 0 0 1-.492.156.703.703 0 0 1-.306-.041c-.103-.037-.158-.164-.168-.391l-.173-3.324a.866.866 0 0 1 .117-.486.463.463 0 0 1 .18-.155c.07-.04.146-.07.224-.103a.545.545 0 0 0 .144-.076.125.125 0 0 0 .048-.108c0-.033-.019-.058-.055-.082a.217.217 0 0 0-.123-.029l-2.31.121a.218.218 0 0 0-.121.04c-.033.028-.048.056-.044.089 0 .045.018.078.056.1a.419.419 0 0 0 .15.064c.084.022.163.05.233.076a.407.407 0 0 1 .188.137c.056.064.098.139.127.225.027.082.042.166.05.246l.17 3.324c.012.225-.034.359-.138.408a.876.876 0 0 1-.303.074.841.841 0 0 1-.504-.11 1.48 1.48 0 0 1-.334-.251 2.077 2.077 0 0 1-.3-.396c-.111-.178-.204-.336-.282-.461a.175.175 0 0 0-.092-.075c-.044-.011-.08-.007-.111.016-.031.018-.053.043-.059.074a.405.405 0 0 0 .002.12l.269 1.415a.155.155 0 0 0 .053.08c.026.014.05.022.075.022l4.657-.24a.13.13 0 0 0 .076-.032c.026-.017.04-.043.043-.084l.12-1.435M67.695 8.553c0-.033-.013-.06-.046-.086a.237.237 0 0 0-.12-.04L65.4 8.37a.226.226 0 0 0-.122.031c-.033.023-.052.053-.054.086 0 .043.017.076.052.107a.554.554 0 0 0 .145.069c.082.031.148.062.205.097a.503.503 0 0 1 .237.383c.011.086.015.168.013.252l-.088 3.137a1.673 1.673 0 0 1-.023.254.5.5 0 0 1-.095.224.486.486 0 0 1-.163.145 2.397 2.397 0 0 1-.208.084.566.566 0 0 0-.15.07.113.113 0 0 0-.06.096.104.104 0 0 0 .05.092.223.223 0 0 0 .12.033l2.13.058a.237.237 0 0 0 .123-.027.101.101 0 0 0 .054-.088.114.114 0 0 0-.052-.101 1.156 1.156 0 0 0-.147-.079 1.485 1.485 0 0 1-.199-.093.556.556 0 0 1-.16-.153.476.476 0 0 1-.082-.226 1.965 1.965 0 0 1-.012-.256l.088-3.139c.001-.084.008-.166.022-.252a.502.502 0 0 1 .263-.367.972.972 0 0 1 .205-.086.507.507 0 0 0 .15-.064c.036-.022.054-.057.054-.104M72.693 11.487c-.077.666-.284 1.203-.63 1.617-.344.41-.763.592-1.25.537-.482-.057-.846-.322-1.094-.799-.25-.478-.336-1.051-.261-1.722.078-.682.288-1.223.632-1.629.349-.405.762-.58 1.253-.524.483.053.848.317 1.097.787.246.471.333 1.047.253 1.733zm1.263.14c.087-.777-.112-1.462-.601-2.052-.489-.588-1.144-.932-1.966-1.022-.814-.092-1.524.09-2.14.555-.61.46-.963 1.086-1.052 1.869-.088.789.113 1.475.61 2.06.491.586 1.145.922 1.958 1.016.815.094 1.532-.094 2.142-.556.609-.467.96-1.088 1.05-1.87M79.625 15.446a.125.125 0 0 0-.032-.112 1.054 1.054 0 0 0-.125-.101.831.831 0 0 1-.182-.137.522.522 0 0 1-.122-.174c-.032-.072-.043-.152-.032-.242.01-.088.021-.174.035-.252l.945-4.066c.017-.074.007-.119-.036-.131-.042-.01-.092.008-.157.05l-4.642 2.926.642-2.757c.016-.08.042-.162.072-.243a.457.457 0 0 1 .14-.201.578.578 0 0 1 .191-.11c.06-.017.134-.03.22-.04a.504.504 0 0 0 .157-.033c.041-.02.066-.047.075-.088.01-.035-.001-.065-.03-.096a.206.206 0 0 0-.11-.064l-1.452-.338a.23.23 0 0 0-.129.01.103.103 0 0 0-.067.074c-.01.04 0 .076.03.111a.38.38 0 0 0 .127.1c.074.047.134.091.182.134.051.047.09.106.123.18.03.074.04.158.033.242-.008.088-.02.17-.038.25l-.71 3.059a1.67 1.67 0 0 1-.077.244.44.44 0 0 1-.137.199.497.497 0 0 1-.186.11 1.58 1.58 0 0 1-.224.041.686.686 0 0 0-.161.035.111.111 0 0 0-.073.086c-.01.037 0 .068.027.099a.217.217 0 0 0 .114.057l1.136.268c.045.007.073.01.091.007a.144.144 0 0 0 .06-.027l3.742-2.254c.046-.027.079-.033.093-.017.015.015.019.04.012.072l-.463 1.998c-.019.078-.043.162-.076.246a.496.496 0 0 1-.325.305c-.063.02-.138.033-.223.043a.679.679 0 0 0-.164.035.117.117 0 0 0-.078.084c-.007.035.004.068.03.1.032.029.07.05.118.058l1.46.338c.046.014.09.012.124-.004a.096.096 0 0 0 .072-.074M82.309 15.045l-.25-2.007 1.698.597zm4.431-2.308a.095.095 0 0 0-.014-.094.198.198 0 0 0-.087-.055l-2.075-.734c-.032-.014-.07-.014-.106-.014-.04.006-.066.024-.076.057-.014.035-.01.062.003.084.017.021.04.05.076.08a.9.9 0 0 1 .133.143.645.645 0 0 1 .105.195c.022.058.03.131.014.211a.373.373 0 0 1-.11.211l-.477.467-2.131-.756-.076-.664a.825.825 0 0 1 0-.248.252.252 0 0 1 .092-.164.46.46 0 0 1 .167-.092c.052-.016.11-.028.168-.037.063-.006.103-.018.123-.024.02-.008.035-.033.047-.068.01-.031.007-.061-.01-.08-.017-.026-.043-.04-.078-.059l-1.317-.467c-.04-.011-.074-.013-.104-.011-.032.004-.055.027-.066.06a.088.088 0 0 0 .004.07.359.359 0 0 0 .07.086c.024.028.053.059.08.086.034.03.065.065.094.106.08.103.13.193.15.267.022.071.038.176.052.303l.606 4.887c.012.07.023.123.035.158a.16.16 0 0 0 .06.074c.03.01.064.008.097-.01.036-.017.078-.054.131-.1l3.618-3.482a.881.881 0 0 1 .17-.132c.052-.03.1-.057.14-.078a.759.759 0 0 1 .147-.053c.05-.012.107-.024.173-.031.058-.002.097-.008.122-.03.024-.02.037-.027.037-.027s.004-.014.013-.035M91.689 15.141a.174.174 0 0 0-.01-.094.117.117 0 0 0-.055-.056l-4.246-2.055a.199.199 0 0 0-.126-.023c-.04.007-.07.027-.083.056a.119.119 0 0 0 .004.117.48.48 0 0 0 .102.125c.06.063.11.118.147.172a.508.508 0 0 1 .06.446 1.468 1.468 0 0 1-.095.236L86.02 16.89a1.524 1.524 0 0 1-.128.221.463.463 0 0 1-.177.166.5.5 0 0 1-.207.064c-.065.002-.142 0-.226-.013a.776.776 0 0 0-.164.003.109.109 0 0 0-.09.065.105.105 0 0 0 .004.105.2.2 0 0 0 .096.08l1.924.932c.042.02.082.029.123.026.04-.01.068-.026.085-.06a.111.111 0 0 0-.005-.114.842.842 0 0 0-.1-.129 1.305 1.305 0 0 1-.145-.168.55.55 0 0 1-.083-.205.464.464 0 0 1 .018-.241c.028-.085.06-.164.095-.238l1.375-2.842c.124-.253.345-.336.667-.244.322.092.615.205.878.33.188.092.371.221.545.385.176.164.302.318.375.457.086.17.14.328.162.492.023.162.04.321.051.477a.2.2 0 0 0 .042.12c.027.036.058.054.096.05a.161.161 0 0 0 .097-.043.242.242 0 0 0 .057-.106l.304-1.32M97.89 27.674a.169.169 0 0 0 .025-.164 1.582 1.582 0 0 0-.11-.205 1.644 1.644 0 0 1-.163-.279.868.868 0 0 1-.055-.303.69.69 0 0 1 .09-.338 3.1 3.1 0 0 1 .195-.306l1.788-2.411a3.68 3.68 0 0 0 .376-.632c.111-.24.195-.473.247-.705.071-.348.09-.67.06-.973a3.061 3.061 0 0 0-.253-.932 2.661 2.661 0 0 0-.474-.695 4.547 4.547 0 0 0-1.795-1.2 2.83 2.83 0 0 0-1.348-.11c-.38.058-.746.197-1.092.417a3.613 3.613 0 0 0-.956.918l-1.802 2.43a2.68 2.68 0 0 1-.238.277.659.659 0 0 1-.293.18.695.695 0 0 1-.308.037 2.054 2.054 0 0 1-.313-.074 1.254 1.254 0 0 0-.23-.045.167.167 0 0 0-.148.072.153.153 0 0 0-.019.147c.019.05.057.099.111.136l2.463 1.827a.33.33 0 0 0 .166.068.144.144 0 0 0 .135-.061.163.163 0 0 0 .022-.16.936.936 0 0 0-.109-.21 1.704 1.704 0 0 1-.155-.274.823.823 0 0 1-.063-.307c0-.111.03-.224.09-.336a2.65 2.65 0 0 1 .198-.306L95.53 21c.113-.152.246-.324.396-.509.153-.186.316-.35.496-.489.216-.164.406-.275.571-.341a1.93 1.93 0 0 1 .512-.118c.253-.023.51.02.768.13.258.113.514.259.765.447.286.214.482.468.589.765.103.299.157.557.162.774.006.183-.042.418-.145.707a3.074 3.074 0 0 1-.426.797l-1.873 2.527a2.912 2.912 0 0 1-.237.275.634.634 0 0 1-.295.182.638.638 0 0 1-.306.037 2.423 2.423 0 0 1-.314-.074 1.195 1.195 0 0 0-.234-.047c-.066-.006-.117.016-.151.066a.143.143 0 0 0-.017.15.358.358 0 0 0 .118.143l1.68 1.246c.052.038.108.06.164.067a.146.146 0 0 0 .135-.061M103.259 30.362a.117.117 0 0 0 .033-.108.633.633 0 0 0-.056-.154 1.143 1.143 0 0 1-.086-.213.589.589 0 0 1-.006-.213.433.433 0 0 1 .096-.22c.056-.073.111-.137.164-.196l2.932-2.968c.056-.06.065-.102.038-.135-.029-.03-.08-.04-.159-.04l-5.487.065 1.992-2.017c.055-.055.119-.114.187-.166a.527.527 0 0 1 .444-.092c.06.017.129.041.21.08a.486.486 0 0 0 .149.055.127.127 0 0 0 .113-.038c.024-.021.031-.056.025-.091a.231.231 0 0 0-.063-.116l-1.059-1.045a.261.261 0 0 0-.114-.064c-.041-.006-.071.004-.097.031a.128.128 0 0 0-.034.108.448.448 0 0 0 .058.152c.037.078.065.148.085.21.021.061.021.136.009.216a.498.498 0 0 1-.097.224 1.594 1.594 0 0 1-.166.194l-2.207 2.234a1.528 1.528 0 0 1-.191.17.435.435 0 0 1-.223.098.509.509 0 0 1-.214-.006 1.3 1.3 0 0 1-.212-.084.625.625 0 0 0-.154-.051.112.112 0 0 0-.11.033c-.026.028-.035.059-.026.1a.193.193 0 0 0 .064.107l.83.821c.03.029.055.05.071.056.018.006.039.01.066.01l4.368.037c.053 0 .083.014.089.033.005.024-.002.043-.028.069l-1.442 1.459c-.056.06-.12.115-.191.172a.467.467 0 0 1-.222.093.476.476 0 0 1-.214-.004 1.253 1.253 0 0 1-.214-.082.841.841 0 0 0-.156-.056.119.119 0 0 0-.111.03.098.098 0 0 0-.025.103c.011.043.032.08.066.113l1.067 1.053a.223.223 0 0 0 .11.062.102.102 0 0 0 .098-.03M108.587 29.129c.025-.021.035-.054.032-.093a.225.225 0 0 0-.051-.12l-1.387-1.615a.196.196 0 0 0-.107-.07c-.04-.01-.071-.004-.099.019a.13.13 0 0 0-.044.106c.006.047.02.098.044.158.034.082.054.154.068.215a.451.451 0 0 1-.009.217.558.558 0 0 1-.115.219 1.542 1.542 0 0 1-.181.173l-2.383 2.045a1.903 1.903 0 0 1-.205.155.44.44 0 0 1-.23.076.502.502 0 0 1-.215-.022 1.695 1.695 0 0 1-.202-.103c-.061-.028-.11-.053-.15-.065a.115.115 0 0 0-.113.028c-.03.023-.041.054-.035.095a.215.215 0 0 0 .054.112l1.387 1.619c.032.037.066.06.103.072.038.01.072.004.102-.021a.116.116 0 0 0 .042-.106 1.04 1.04 0 0 0-.042-.158 1.277 1.277 0 0 1-.065-.213.592.592 0 0 1 .005-.22.472.472 0 0 1 .113-.214c.061-.066.122-.127.181-.181l2.388-2.043a1.95 1.95 0 0 1 .202-.15.52.52 0 0 1 .23-.081.609.609 0 0 1 .22.026c.057.023.124.056.2.097a.442.442 0 0 0 .148.07.116.116 0 0 0 .114-.027" style="fill:#354fa9;fill-opacity:1;fill-rule:nonzero;stroke:none;stroke-width:.1" transform="matrix(3.84497 0 0 -3.84497 0 500)"/><path d="M108.566 37.387c.02-.012.03-.033.034-.059a.434.434 0 0 0-.009-.109.372.372 0 0 0-.026-.121.805.805 0 0 1 .019-.438c.027-.066.072-.158.141-.28l2.281-4.356a.523.523 0 0 0 .047-.139.156.156 0 0 0-.009-.098c-.011-.029-.038-.042-.075-.05a.669.669 0 0 0-.159.006l-4.954.79a.772.772 0 0 1-.251 0 1.132 1.132 0 0 1-.211-.056.619.619 0 0 1-.147-.076 3.088 3.088 0 0 1-.165-.098.347.347 0 0 0-.113-.04c-.031-.003-.053.001-.073.017-.031.021-.045.048-.044.08a.19.19 0 0 0 .042.1l1.369 1.902c.022.031.05.058.082.08.033.017.066.017.095-.004.028-.02.042-.043.043-.07a.564.564 0 0 0-.013-.11c-.015-.066-.032-.129-.048-.191a.41.41 0 0 1 .012-.217.389.389 0 0 1 .127-.191.467.467 0 0 1 .223-.106l3.126-.51-1.473 2.803a1.045 1.045 0 0 1-.146.19c-.067.066-.128.101-.19.105a.279.279 0 0 1-.177-.02c-.042-.023-.095-.05-.151-.082a.66.66 0 0 0-.111-.048c-.029-.01-.058-.006-.09.017-.03.024-.044.049-.038.082a.206.206 0 0 0 .042.092l.826 1.146a.182.182 0 0 0 .075.073c.027.015.058.01.089-.014" style="fill:#354fa9;fill-opacity:1;fill-rule:nonzero;stroke:none;stroke-width:.1" transform="matrix(3.84497 0 0 -3.84497 0 500)"/><path d="M115.239 39.202a.16.16 0 0 0 .047-.08c.003-.034 0-.06-.012-.077l-2.26-4.02a.225.225 0 0 0-.093-.091.113.113 0 0 0-.1 0 .136.136 0 0 0-.064.098.522.522 0 0 0 .014.164c.014.082.024.158.025.22a.558.558 0 0 1-.051.213.533.533 0 0 1-.157.19c-.07.054-.139.1-.209.138l-2.74 1.543c-.068.04-.147.075-.231.11a.514.514 0 0 1-.444-.035 1.573 1.573 0 0 1-.179-.137.732.732 0 0 0-.136-.092.113.113 0 0 0-.114 0 .098.098 0 0 0-.054.088.217.217 0 0 0 .034.123l2.202 3.918c.013.02.032.04.059.05a.156.156 0 0 0 .096.005l1.137-.377c.047-.016.081-.032.103-.059a.146.146 0 0 0 .035-.094.119.119 0 0 0-.045-.093.196.196 0 0 0-.113-.04 9.436 9.436 0 0 1-.435-.023 1.634 1.634 0 0 1-.417-.113 1.735 1.735 0 0 1-.469-.32 2 2 0 0 1-.402-.499c-.07-.125-.162-.298-.27-.517-.112-.22-.156-.416-.138-.588a.296.296 0 0 1 .057-.139c.029-.037.1-.09.208-.15l1.182-.666c.067.123.175.316.328.582.159.285.204.51.14.68a2.125 2.125 0 0 1-.235.453.798.798 0 0 1-.105.13c-.026.026-.055.061-.086.1a.33.33 0 0 0-.071.104.133.133 0 0 0 .014.119.09.09 0 0 0 .082.05.19.19 0 0 0 .116-.034l1.969-1.104a.231.231 0 0 0 .087-.082.12.12 0 0 0 .002-.102c-.021-.04-.05-.068-.09-.072a.298.298 0 0 0-.13.008 1.35 1.35 0 0 0-.137.027 2.06 2.06 0 0 1-.667-.02c-.175-.032-.343-.189-.502-.476l-.329-.58 1.251-.701c.247-.14.466-.092.662.135.196.232.365.472.508.726.104.184.179.395.229.63.051.234.066.433.048.591a1.575 1.575 0 0 1-.147.494 5.917 5.917 0 0 1-.233.416.21.21 0 0 0-.033.127c.002.045.018.076.052.094a.148.148 0 0 0 .101.023.246.246 0 0 0 .108-.058l1.002-.91M113.938 45.301a.743.743 0 0 1-.402.067.867.867 0 0 1-.388-.141 1.395 1.395 0 0 1-.346-.307 1.996 1.996 0 0 1-.268-.457c-.027-.064-.073-.173-.138-.336-.066-.164-.093-.277-.074-.347a.34.34 0 0 1 .153-.184c.072-.039.14-.074.203-.098l1.324-.566.339.793c.073.17.124.336.158.498.033.162.036.317.009.455a.834.834 0 0 1-.177.36l-.135.158-.258.105zm4.131.291a.104.104 0 0 0 .054-.074.157.157 0 0 0-.014-.107l-.412-.963a1.733 1.733 0 0 0-.129-.25 1.032 1.032 0 0 0-.15-.19 1.381 1.381 0 0 0-.203-.129 1.221 1.221 0 0 0-.247-.101l-2.362-.49c-.014-.03-.086-.204-.222-.52l1.264-.543c.077-.031.156-.057.242-.08a.552.552 0 0 1 .246-.008.568.568 0 0 1 .198.094c.05.04.107.094.164.156a.425.425 0 0 0 .123.111c.036.02.075.024.113.008a.114.114 0 0 0 .064-.078c.012-.039.004-.082-.018-.129l-.843-1.98a.203.203 0 0 0-.082-.098c-.035-.021-.067-.025-.1-.01-.039.012-.064.043-.074.086a.48.48 0 0 0-.003.162c.003.088.003.164 0 .23a.479.479 0 0 1-.072.21.482.482 0 0 1-.173.178 1.698 1.698 0 0 1-.225.115l-2.889 1.232a2.22 2.22 0 0 1-.241.086.524.524 0 0 1-.445-.094 1.476 1.476 0 0 1-.163-.16c-.048-.047-.09-.08-.123-.107a.13.13 0 0 0-.117-.01.099.099 0 0 0-.061.084.207.207 0 0 0 .019.123l1.038 2.434c.02.048.054.117.094.203.04.086.074.148.094.185.104.21.24.424.407.645.167.22.325.379.468.478.165.112.342.192.534.233a.97.97 0 0 0 .607-.072c.337-.145.545-.366.622-.659.076-.297.088-.629.032-1a1.855 1.855 0 0 0-.032-.177c-.015-.063-.026-.11-.039-.135l1.883.373c.125.035.215.064.271.084.058.025.119.053.186.088a.922.922 0 0 1 .223.15c.056.051.109.106.162.168.038.047.071.082.087.106.022.025.04.052.062.08.028.043.062.07.098.076l.055.008.029-.022M118.503 51.17c.249-.1.433-.242.551-.422.118-.18.199-.347.247-.496.079-.252.113-.515.102-.787-.008-.273-.08-.62-.21-1.045-.1-.34-.252-.693-.448-1.06a5.139 5.139 0 0 0-.618-.926.304.304 0 0 0-.065-.047.094.094 0 0 0-.088-.01l-1.264.201c-.053.018-.087.04-.105.065a.236.236 0 0 0-.043.096.139.139 0 0 0 .048.095c.031.026.07.045.116.051.15.037.321.086.509.145.187.054.353.129.494.217.264.162.489.355.677.576.186.22.318.447.392.68.148.47.193.835.125 1.105-.066.265-.184.451-.36.555-.231.146-.431.156-.609.035a1.431 1.431 0 0 1-.434-.506c-.174-.31-.323-.576-.449-.795a10.967 10.967 0 0 0-.447-.717 3.608 3.608 0 0 0-.3-.389 2.061 2.061 0 0 0-.27-.257 1.927 1.927 0 0 0-.597-.297 1.167 1.167 0 0 0-.67.027c-.501.15-.816.48-.933.977a2.809 2.809 0 0 0 .047 1.511c.104.329.243.68.431 1.043.189.37.373.67.558.899a.181.181 0 0 0 .063.062.214.214 0 0 0 .097.018l1.277-.211a.262.262 0 0 0 .11-.055.188.188 0 0 0 .047-.098c0-.035-.018-.07-.053-.101a.285.285 0 0 0-.122-.063 1.778 1.778 0 0 1-.505-.101 4.154 4.154 0 0 1-.476-.192c-.145-.076-.329-.23-.549-.462a2.316 2.316 0 0 1-.498-.825c-.08-.23-.106-.513-.077-.843.028-.334.189-.537.481-.612.235-.064.423-.015.563.149.139.16.27.346.385.55l.69 1.21c.282.476.596.82.944 1.029.348.209.759.217 1.236.021M120.311 53.946c.031-.008.057-.03.074-.069a.226.226 0 0 0 .007-.127l-.457-2.078a.231.231 0 0 0-.061-.115c-.03-.023-.061-.035-.096-.027a.117.117 0 0 0-.088.072.53.53 0 0 0-.037.158.971.971 0 0 1-.042.22.438.438 0 0 1-.11.188.506.506 0 0 1-.205.139 1.67 1.67 0 0 1-.241.07l-3.068.676c-.078.016-.164.03-.253.04a.494.494 0 0 1-.241-.042.454.454 0 0 1-.175-.123 1.28 1.28 0 0 1-.133-.183.845.845 0 0 0-.101-.13c-.029-.03-.066-.036-.111-.03a.11.11 0 0 0-.077.07.203.203 0 0 0-.002.125l.456 2.078c.008.05.03.086.057.115.028.03.062.035.1.03a.125.125 0 0 0 .085-.073.792.792 0 0 0 .039-.16c.01-.086.026-.156.044-.219a.518.518 0 0 1 .308-.326 1.63 1.63 0 0 1 .246-.072l3.067-.678c.08-.016.164-.027.249-.035a.53.53 0 0 1 .422.168.953.953 0 0 1 .133.18c.031.054.065.1.097.128.033.026.072.04.114.03M117.719 60.252a.228.228 0 0 0 .117-.017.13.13 0 0 0 .066-.072.13.13 0 0 0-.007-.108.183.183 0 0 0-.09-.082l-.505-.191a2.106 2.106 0 0 1-.452-.221 1.828 1.828 0 0 1-.309-.28.871.871 0 0 1-.197-.476.743.743 0 0 1 .018-.31c.024-.102.152-.17.373-.2l3.297-.453c.081-.01.166-.01.253 0 .089.012.169.04.242.074.073.045.13.102.171.168.04.067.08.139.119.217a.64.64 0 0 0 .088.135c.033.031.07.045.11.037.033-.002.058-.023.08-.06.019-.036.025-.079.019-.125l-.316-2.295a.205.205 0 0 0-.052-.118c-.028-.029-.059-.04-.091-.037a.12.12 0 0 0-.096.069.473.473 0 0 0-.048.154 4.29 4.29 0 0 1-.058.24.395.395 0 0 1-.12.196.64.64 0 0 1-.212.146 1.08 1.08 0 0 1-.245.07l-3.296.453c-.222.032-.361-.003-.417-.105a.756.756 0 0 1-.098-.295.85.85 0 0 1 .06-.512c.071-.142.146-.261.224-.353.078-.098.203-.21.372-.334.173-.123.316-.23.434-.32a.147.147 0 0 0 .068-.098.139.139 0 0 0-.022-.11c-.026-.03-.054-.048-.082-.05a.346.346 0 0 0-.12.013l-1.389.389a.134.134 0 0 0-.074.057.145.145 0 0 0-.015.074l.637 4.627a.159.159 0 0 0 .033.07c.022.022.05.037.09.035l1.44-.002M116.484 66.36a.087.087 0 0 0 .064-.026.314.314 0 0 0 .062-.105c.012-.03.027-.065.04-.102.012-.039.027-.076.038-.117.028-.066.057-.127.084-.182.03-.052.068-.105.109-.16.042-.052.109-.125.205-.21.095-.085.206-.175.335-.27l1.934-1.338 1.105-.031c.081-.002.166 0 .252.012.087.01.162.035.232.076a.56.56 0 0 1 .152.16c.031.055.063.125.094.204.02.063.044.11.073.145a.124.124 0 0 0 .105.053c.033 0 .061-.017.083-.053a.226.226 0 0 0 .034-.125l-.06-2.13a.193.193 0 0 0-.038-.118c-.029-.032-.056-.05-.087-.048a.122.122 0 0 0-.103.056.41.41 0 0 0-.064.15c-.028.08-.056.153-.085.206a.53.53 0 0 1-.142.168.567.567 0 0 1-.226.095c-.086.012-.171.02-.252.022l-1.097.031-2.196-1.344a1.23 1.23 0 0 1-.272-.221 4.798 4.798 0 0 1-.156-.195c-.03-.045-.064-.105-.109-.183a2.785 2.785 0 0 1-.117-.245.28.28 0 0 0-.076-.107c-.029-.021-.056-.035-.079-.033a.104.104 0 0 0-.086.055.225.225 0 0 0-.026.107l.068 2.422c0 .043.011.082.029.114.016.034.045.05.082.05a.1.1 0 0 0 .087-.043.387.387 0 0 0 .047-.104l.078-.248c.028-.082.075-.136.14-.162a.29.29 0 0 1 .194-.008c.067.02.135.053.203.098l1.65 1.012-1.564 1.067a.74.74 0 0 1-.188.081.258.258 0 0 1-.211-.02.367.367 0 0 1-.172-.157 3.264 3.264 0 0 0-.089-.179.484.484 0 0 0-.065-.103c-.016-.021-.041-.03-.072-.03a.106.106 0 0 0-.082.036.178.178 0 0 0-.025.104l.049 1.728c.002.042.01.076.026.106.019.029.046.042.085.04M106.646 89.74c.294.234-.054.768-.054.768l-1.359 1.72c1.609-.379 3.416 1.342 3.416 1.342l5.034 3.972c.243.273-.381 1.052-.381 1.052l-.625.82-4.718 5.972c-.354.399-.396.773-.396.773-.135.626-.455.283-.455.283-.604-.771.02-1.656.02-1.656l4.674-5.915-5.188-4.099s-1.484-1.3-2.364-1.3l-.609.771-.052.073.067.054 4.031 3.18c.209.204-.147.655-.147.655l-1.03 1.58c-.431.175-.431-.34-.431-.34.261-.75-.286-1.07-.286-1.07l-3.358-2.652-.931 1.175 3.876 3.062c.247.198.097.482.097.482l-.897 1.463c-.188.328-.363.412-.363.412-.523.103-.36-.431-.36-.431.23-.632-.269-1.011-.269-1.011l-3.247-2.564-1.289 1.63s-.354.48-.38.609c0 0-.201.405-.246.836 0 0-.059.201-.229.26 0 0-.233-.03-.377-.315 0 0-.127-.476-.145-.856 0 0-.042-.132-.01-.205.07-.155.554-.703.554-.703l7.679-9.72c.475-.507.748-.107.748-.107M63.065 124.158c.603-.092.568-.437.568-.437.02-.463-.498-.528-.498-.528h-2.74v-5.949c.114-.317.416-.217.416-.217.822.029 1.36.163 2.697.333.982.126 1.488.492 1.648.632v6.64c-.043.374-.867.785-.867.785-.027.044-.202.044-.202.303s.345.232.345.232l2.138-.306c.407-.07.42-.327.42-.327v-4.64h1.096v4.116c-.015.42-.764.824-.764.824-.074.072-.19.058-.19.274 0 .216.346.244.346.244l2.14-.33c.316 0 .274-.361.274-.361V112.36c.05-1.169-.622-1.107-.622-1.107h-.751c-.381.008-.433.299-.433.299v7.959H66.99v-7.002c0-1.169-.91-1.124-.91-1.124h-.578c-.332 0-.346.244-.346.244v5.482c-.363-.471-1.588-.746-1.588-.746-.217-.058-2.197-.419-2.197-.419-1.152-.232-1.873-.202-1.873-.202-1.197 0-1.197 1.142-1.197 1.142v5.821c-.06.347-.347.746-.71.861-.36.116-.36.348-.36.348.017.258.277.242.277.242h5.556M84.505 114.57c.796-.377 1.806.23 2.288 1.249.482 1.019.209 2.042-.588 2.418-.793.376-1.74-.102-2.22-1.12-.482-1.019-.275-2.171.52-2.547zm-1.04 6.297 2.29-1.081.35.735c.091.468-.253.886-.253.886-.137.321.055.453.055.453.1.08.324-.058.324-.058l1.938-1.106c.249-.15.138-.385.138-.385l-.666-1.411 2.79-1.319c.237-.176.217-.486.217-.486-.117-.455-.7-.404-.7-.404l-1.383.655c1.228-2.336-.798-3.583-.798-3.583-1.386-1.038-3.211-.301-3.211-.301-2.708 1.023-2.794 3.074-2.794 3.074-.072 2.685 2.144 2.982 2.144 2.982l-1.385.652c-.066.066-.267.99-.267.99-.087.423.094.531.094.531.203.095.404-.223.404-.223.135-.256.658-.566.658-.566l.056-.035" style="fill:#354fa9;fill-opacity:1;fill-rule:nonzero;stroke:none;stroke-width:.1" transform="matrix(3.84497 0 0 -3.84497 0 500)"/><path d="M88.012 110.389c1.022-.142 1.564.924 1.564.924l2.839 6.002c.179.713-.453 1.205-.453 1.205-.134.191-.123.345-.123.345-.033.335.28.251.28.251.087-.011 2.406-1.458 2.406-1.458.105-.113.06-.411.06-.411l-1.209-2.559 1.46-.563c.312-.082.47-.221.47-.221.28-.356-.11-.907-.11-.907-.264-.25-.618-.091-.618-.091l-1.644.779-1.12-2.373c-.09-.249-.862-1.782-2.056-1.749l.328-.155s.434-.187.264-.646l-1.488-3.149s-.521-.968-1.276-.742l-.86.409s-.163.055-.13.269l1.697 3.589-6.423 3.035s-.249.215-.253.345c0 0-.383 1.012-.035 1.07 0 0 .232.084.274-.097 0 0 .302-.303.552-.452l5.604-2.65M28.388 95.077c-.733-1.001-2.086-1.255-3.023-.569-.937.684-1.105 2.051-.373 3.05.731 1.001 2.085 1.257 3.022.57.94-.685 1.105-2.051.374-3.051zm-.847 5.191s-.231.008-.61-.099c.003.318-.084.984-.756 1.712a2.367 2.367 0 0 1-.387.378l-5.569 4.074s-.178.167-.425-.097l-1.8-1.929s-.14-.214.013-.344c0 0 .166-.211.473.041 0 0 .774.498 1.198.258l1.463-1.067-1.166-1.593s-.336-.412-.624-.537c0 0-.301.629-.58.779 0 0-.334.226-.636-.119l-3.563-4.87-.027-.035s-.416-.416-.65-.492c0 0-.23-.228-.055-.425 0 0 .119-.064.262-.061l.815.105s.135-.011.31.18l2.43 3.324s1.009-1.022 1.564-3.41c0 0 .603-2.384.511-4.566 0 0-.024-.373.278-.469 0 0 .277-.131.418.404 0 0 .629 2.225.347 4.962 0 0-.198 2.54-1.073 4.082l.715.082 1.528 2.089 1.34-.98L22.01 99.9l-.578-.427s-.31-.18-.225-.402c0 0 .064-.154.298-.2 0 0 .537.033 1.078.168l1.505 2.056.963-.707s.167-.124.189-.135c.18-.166.388-.386.468-.681-.453-.318-.958-.776-1.47-1.445 0 0-1.835-2.363-.855-4.387 0 0 1.523-2.814 4.617-.4 0 0 2.253 1.72 2.272 4.29 0 0 .056 2.62-2.731 2.638M33.422 116.366s-.429-.08-.37-.407c0 0 .048-.333.448-.236 0 0 1.046.21 1.278-.414 0 0 1.143-2.748-.351-6.576 0 0-.237-.483.166-.595 0 0 .137-.077.375.214 0 0 1.445 1.884 1.782 4.695 0 0 3.106-1.012 4.395-.592 0 0 .814.25.378.948 0 0-.293.558-1.634.878 0 0-.24.117-.622-.02 0 0-.351-.168-.763-.19 0 0-1.136-.095-1.628.035 0 0 .268 1.898-.294 3.146 0 0-.102.318-.513.202l-2.647-1.088" style="fill:#354fa9;fill-opacity:1;fill-rule:nonzero;stroke:none;stroke-width:.1" transform="matrix(3.84497 0 0 -3.84497 0 500)"/><path d="M44.382 107.379c-1.107-.583-2.44-.223-2.982.803-.541 1.026-.086 2.331 1.021 2.913 1.102.583 2.436.225 2.978-.802.544-1.027.086-2.331-1.017-2.914zm.316 12.318s-1.432-.919-1.55-.948l-1.233 2.341s-.164.158-.382.076l-2.305-.873s-.358-.061-.32-.316c.038-.259.277-.246.295-.252.02-.007 1.052.132 1.365-.338l3.184-6.032c.1-.25.171-.543.123-.797a5.674 5.674 0 0 1-1.902-.614c-2.092-1.105-3.149-3.211-2.36-4.705.787-1.494 3.122-1.81 5.215-.708 2.093 1.104 3.149 3.212 2.36 4.706-.367.697-1.073 1.138-1.934 1.297l.002.004c.503 1.189-.197 2.56-.197 2.56l-1.399 2.653 1.692.892s.375.182.059.78c0 0-.248.536-.713.274M22.176 65.016c0 23.628 19.22 42.848 42.847 42.848 23.625 0 42.847-19.22 42.847-42.848 0-23.625-19.222-42.846-42.847-42.846-23.626 0-42.847 19.221-42.847 42.846zm-1.104 0c0-24.23 19.716-43.949 43.95-43.949 24.235 0 43.95 19.719 43.95 43.949 0 24.234-19.715 43.95-43.95 43.95-24.234 0-43.95-19.716-43.95-43.95" style="fill:#354fa9;fill-opacity:1;fill-rule:nonzero;stroke:none;stroke-width:.1" transform="matrix(3.84497 0 0 -3.84497 0 500)"/><path d="M66.042 45.735v1.338h-2.125v-1.338h-4.823v-6.149h2.12v4.024h1.096v-4.024h2.122v4.024h1.095v-4.024h2.125v4.024h1.096v-4.024h2.121v6.149h-4.827M54.4 67.794c2.171 3.58 6.099 5.976 10.582 5.976 4.48 0 8.412-2.397 10.582-5.976zm30.37 0h-6.072c-2.098 4.5-6.345 7.796-11.421 8.57l-2.295 3.758-2.297-3.759c-5.072-.773-9.317-4.069-11.416-8.569h-6.072l4.923-3.551a15.16 15.16 0 0 1-.268-2.844c0-6.104 3.612-11.36 8.818-13.756l1.218 2.488c-4.283 1.947-7.272 6.264-7.272 11.268 0 .357.022.712.05 1.06h12.366V54.59l12.238 8.186c.052-.45.08-.911.08-1.377 0-5.002-2.986-9.317-7.269-11.264l1.22-2.488c5.204 2.396 8.813 7.65 8.813 13.752 0 1.05-.11 2.078-.315 3.07l4.97 3.326M68.428 88.055v1.192h3.567v-1.192h-3.567zm-6.892-3.303h-3.564v1.192h3.564zm12.524 1.192v5.413h-7.696v-3.301h-2.76v3.301h-7.7v-2.11h5.632v-1.192h-5.632v-5.414h7.7v3.303h2.76V82.64h7.696v2.111h-5.615v1.192h5.615" style="fill:#fff;fill-opacity:1;fill-rule:nonzero;stroke:none;stroke-width:.1" transform="matrix(3.84497 0 0 -3.84497 0 500)"/><path d="M88.39 65.685c-.037-5.597-1.329-11.066-3.606-15.81-4.02-8.373-11.11-15.005-19.802-18.422-8.689 3.417-15.778 10.05-19.796 18.422a36.61 36.61 0 0 0-3.61 15.81v14.922c1.3.287 2.544.721 3.715 1.283 4.799 2.303 8.37 6.751 9.462 12.103.142.701.243 1.416.298 2.143 1.45.551 2.958.982 4.51 1.286 1.754.346 3.565.527 5.421.527 1.856 0 3.668-.18 5.422-.527a27.991 27.991 0 0 0 4.472-1.27c.054-.719.151-1.427.292-2.117 1.084-5.403 4.69-9.893 9.535-12.198a17.188 17.188 0 0 1 3.686-1.27zm3.74 17.98c-7.61 0-13.803 6.188-13.803 13.798 0 .344.014.687.038 1.026a31.503 31.503 0 0 1-13.383 2.954A31.494 31.494 0 0 1 51.6 98.489c.025-.339.038-.682.038-1.026 0-7.61-6.192-13.799-13.801-13.799-.386 0-.764.014-1.14.049a5.24 5.24 0 0 0 1.39-3.55l-.003-14.348c0-10.78 4.194-20.955 11.818-28.578 4.328-4.332 9.471-7.555 15.08-9.531 5.609 1.976 10.75 5.199 15.086 9.53 7.618 7.624 11.819 17.815 11.819 28.589v14.337c0 1.369.525 2.616 1.383 3.55a12.385 12.385 0 0 0-1.14-.048" style="fill:#fff;fill-opacity:1;fill-rule:nonzero;stroke:none;stroke-width:.1" transform="matrix(3.84497 0 0 -3.84497 0 500)"/><path d="M1.325 65.016c0 35.126 28.574 63.699 63.698 63.699 35.123 0 63.698-28.573 63.698-63.699 0-35.123-28.575-63.691-63.698-63.691-35.124 0-63.698 28.568-63.698 63.691zm-1.325 0C0 29.163 29.171 0 65.023 0s65.021 29.163 65.021 65.016c0 35.854-29.169 65.024-65.021 65.024C29.17 130.04 0 100.87 0 65.016" style="fill:#354fa9;fill-opacity:1;fill-rule:nonzero;stroke:none;stroke-width:.0999997" transform="matrix(3.84497 0 0 -3.84497 0 500)"/></svg>