<svg width="220" height="95" viewBox="0 0 220 95" fill="none" xmlns="http://www.w3.org/2000/svg">
<path fill-rule="evenodd" clip-rule="evenodd" d="M78.1839 83.2992C69.8996 90.4111 59.1288 94.7085 47.3543 94.7085C21.2012 94.7085 0 73.5073 0 47.3543C0 21.2012 21.2012 0 47.3543 0C59.1288 0 69.8996 4.29738 78.1839 11.4093C68.0675 20.094 61.6592 32.9757 61.6592 47.3543C61.6592 61.7328 68.0675 74.6145 78.1839 83.2992ZM140.83 82.4284C132.423 90.0588 121.261 94.7085 109.013 94.7085C97.2389 94.7085 86.4681 90.4111 78.1839 83.2992C88.3002 74.6145 94.7085 61.7328 94.7085 47.3543C94.7085 32.9757 88.3002 20.094 78.1839 11.4093C86.4681 4.29738 97.2389 0 109.013 0C121.261 0 132.423 4.64969 140.83 12.2802C131.285 20.9434 125.291 33.4489 125.291 47.3543C125.291 61.2596 131.285 73.7651 140.83 82.4284ZM140.83 82.4284C150.374 73.7651 156.368 61.2596 156.368 47.3543C156.368 33.4489 150.374 20.9434 140.83 12.2802C149.236 4.64969 160.398 0 172.646 0C198.799 0 220 21.2012 220 47.3543C220 73.5073 198.799 94.7085 172.646 94.7085C160.398 94.7085 149.236 90.0588 140.83 82.4284Z" fill="#007BFF"/>
</svg>
