<svg width="148" height="151" viewBox="0 0 148 151" fill="none" xmlns="http://www.w3.org/2000/svg">
<path d="M55.921 36.5334C71.5504 50.2115 73.3058 74.8912 73.3058 74.8912C73.3058 74.8912 49.7209 77.3945 34.0915 63.7164C18.4621 50.0384 16.7067 25.3587 16.7067 25.3587C16.7067 25.3587 40.2915 22.8554 55.921 36.5334Z" fill="#28A745"/>
<path d="M85.4963 34.5805C71.8009 50.1947 73.3057 74.891 73.3057 74.891C73.3057 74.891 97.0149 74.2716 110.71 58.6573C124.406 43.0431 122.901 18.3468 122.901 18.3468C122.901 18.3468 99.1916 18.9662 85.4963 34.5805Z" fill="#28A745"/>
<path d="M61.1138 115.181C74.8092 99.567 73.3044 74.8707 73.3044 74.8707C73.3044 74.8707 49.5952 75.4901 35.8998 91.1044C22.2045 106.719 23.7092 131.415 23.7092 131.415C23.7092 131.415 47.4185 130.795 61.1138 115.181Z" fill="#28A745"/>
<path d="M90.6891 113.228C75.0597 99.5503 73.3043 74.8705 73.3043 74.8705C73.3043 74.8705 96.8892 72.3673 112.519 86.0453C128.148 99.7233 129.903 124.403 129.903 124.403C129.903 124.403 106.319 126.906 90.6891 113.228Z" fill="#28A745"/>
<path d="M70.2738 33.2824C75.1767 42.2835 75.939 52.6727 75.4617 60.8462C75.2233 64.9281 74.6766 68.4444 74.1896 70.9392C73.9462 72.1863 73.7179 73.1774 73.5508 73.8552C73.4975 74.0715 73.4504 74.256 73.4111 74.4066C73.2675 74.3658 73.0923 74.315 72.8877 74.2536C72.2467 74.0614 71.3176 73.7658 70.1707 73.3542C67.8762 72.5307 64.713 71.2437 61.242 69.3908C54.2916 65.6806 46.1508 59.7251 41.2479 50.7241C36.345 41.723 35.5827 31.3338 36.06 23.1603C36.2984 19.0784 36.8451 15.5621 37.3321 13.0673C37.5755 11.8201 37.8038 10.8291 37.9709 10.1513C38.0242 9.93494 38.0713 9.75053 38.1106 9.59991C38.2542 9.64064 38.4294 9.69148 38.634 9.75284C39.275 9.94511 40.2041 10.2406 41.3511 10.6523C43.6455 11.4757 46.8087 12.7628 50.2797 14.6157C57.2301 18.3259 65.3709 24.2814 70.2738 33.2824Z" stroke="#93D9A3"/>
<path d="M99.3482 41.8693C90.3417 46.7623 84.0572 55.0703 80.0172 62.1915C77.9996 65.7479 76.5482 68.997 75.6016 71.3561C75.1284 72.5353 74.7817 73.4914 74.5536 74.1512C74.4809 74.3618 74.4202 74.5422 74.3714 74.69C74.514 74.7338 74.6887 74.7863 74.8938 74.846C75.5364 75.0328 76.477 75.2895 77.6636 75.5671C80.0372 76.1223 83.3921 76.7604 87.3128 77.0906C95.1637 77.752 105.234 77.1751 114.24 72.2821C123.247 67.3892 129.531 59.0812 133.571 51.9599C135.589 48.4036 137.04 45.1544 137.987 42.7954C138.46 41.6161 138.807 40.6601 139.035 40.0002C139.108 39.7896 139.168 39.6093 139.217 39.4614C139.074 39.4176 138.9 39.3651 138.695 39.3055C138.052 39.1186 137.111 38.8619 135.925 38.5844C133.551 38.0291 130.196 37.3911 126.276 37.0608C118.425 36.3995 108.355 36.9764 99.3482 41.8693Z" stroke="#93D9A3"/>
<path d="M48.1568 108.167C57.1633 103.274 63.4477 94.9659 67.4877 87.8446C69.5053 84.2882 70.9567 81.0391 71.9034 78.68C72.3765 77.5008 72.7233 76.5447 72.9513 75.8849C73.0241 75.6743 73.0848 75.4939 73.1336 75.3461C72.9909 75.3023 72.8162 75.2498 72.6111 75.1902C71.9685 75.0033 71.0279 74.7466 69.8414 74.4691C67.4677 73.9138 64.1128 73.2758 60.1921 72.9455C52.3412 72.2842 42.2711 72.8611 33.2646 77.754C24.2581 82.6469 17.9737 90.9549 13.9337 98.0762C11.9161 101.633 10.4647 104.882 9.51804 107.241C9.04485 108.42 8.6981 109.376 8.47009 110.036C8.39731 110.246 8.33664 110.427 8.28782 110.575C8.43047 110.618 8.60519 110.671 8.81028 110.731C9.4529 110.917 10.3935 111.174 11.58 111.452C13.9537 112.007 17.3086 112.645 21.2293 112.975C29.0802 113.637 39.1503 113.06 48.1568 108.167Z" stroke="#93D9A3"/>
<path d="M77.2311 116.754C72.3282 107.753 71.566 97.3634 72.0433 89.1899C72.2816 85.1081 72.8284 81.5917 73.3153 79.0969C73.5588 77.8498 73.7871 76.8588 73.9541 76.1809C74.0075 75.9646 74.0545 75.7802 74.0939 75.6296C74.2374 75.6703 74.4126 75.7211 74.6172 75.7825C75.2582 75.9748 76.1873 76.2703 77.3343 76.6819C79.6287 77.5054 82.7919 78.7924 86.263 80.6453C93.2133 84.3555 101.354 90.311 106.257 99.3121C111.16 108.313 111.922 118.702 111.445 126.876C111.207 130.958 110.66 134.474 110.173 136.969C109.929 138.216 109.701 139.207 109.534 139.885C109.481 140.101 109.434 140.286 109.394 140.436C109.251 140.395 109.076 140.345 108.871 140.283C108.23 140.091 107.301 139.795 106.154 139.384C103.859 138.56 100.696 137.273 97.2252 135.42C90.2748 131.71 82.134 125.755 77.2311 116.754Z" stroke="#93D9A3"/>
</svg>
