<svg width="198" height="110" viewBox="0 0 198 110" fill="none" xmlns="http://www.w3.org/2000/svg">
<path d="M197.954 52.5988C194.994 53.1345 191.947 53.4142 188.833 53.4142C160.685 53.4142 137.867 30.5475 137.867 2.34004C137.867 1.55577 137.884 0.775633 137.919 0C109.925 2.56949 88 26.1609 88 54.884C88 85.3237 112.624 110 143 110C173.376 110 198 85.3237 198 54.884C198 54.1185 197.984 53.3567 197.954 52.5988Z" fill="#FFC107"/>
<mask id="path-2-inside-1_55_185" fill="white">
<path fill-rule="evenodd" clip-rule="evenodd" d="M54.3431 110C85.3988 108.243 110 84.3134 110 55.0517C110 24.6475 83.4402 -5.30746e-06 50.6769 -2.44321e-06C29.2158 -5.67013e-07 10.4163 10.5756 -7.30702e-06 26.4174C1.21258 26.3488 2.43501 26.314 3.66619 26.314C36.4294 26.314 62.9893 50.9615 62.9893 81.3657C62.9893 91.854 59.8287 101.657 54.3431 110Z"/>
</mask>
<path d="M54.3431 110L53.5076 109.451L52.4161 111.111L54.3996 110.998L54.3431 110ZM-7.30702e-06 26.4174L-0.835571 25.868L-1.92708 27.5281L0.0564884 27.4158L-7.30702e-06 26.4174ZM109 55.0517C109 83.7166 84.8818 107.271 54.2867 109.002L54.3996 110.998C85.9158 109.215 111 84.9101 111 55.0517L109 55.0517ZM50.6769 0.999998C82.9596 0.999995 109 25.2688 109 55.0517L111 55.0517C111 24.0261 83.9208 -1.00001 50.6769 -1L50.6769 0.999998ZM0.835556 26.9668C11.0626 11.413 29.5443 0.999999 50.6769 0.999998L50.6769 -1C28.8872 -1 9.77008 9.7383 -0.835571 25.868L0.835556 26.9668ZM0.0564884 27.4158C1.25027 27.3483 2.45386 27.314 3.66619 27.314L3.66619 25.314C2.41615 25.314 1.17489 25.3494 -0.0565031 25.419L0.0564884 27.4158ZM3.66619 27.314C35.9488 27.314 61.9893 51.5829 61.9893 81.3657L63.9893 81.3657C63.9893 50.3402 36.91 25.314 3.66619 25.314L3.66619 27.314ZM61.9893 81.3657C61.9893 91.6489 58.8914 101.263 53.5076 109.451L55.1787 110.549C60.7659 102.052 63.9893 92.0592 63.9893 81.3657L61.9893 81.3657Z" fill="#FFDD77" mask="url(#path-2-inside-1_55_185)"/>
</svg>
